<svg xmlns="http://www.w3.org/2000/svg" width="46" height="38" viewBox="0 0 46 38">
	<defs>
		<style>
			.svg {
				fill: black;
				fill-rule: evenodd;
			}

		</style>
	</defs>
	<path class="svg" d="M894.452,1034.58h-3.486a0.88,0.88,0,1,0,0,1.76h3.486a0.95,0.95,0,1,1,0,1.9h-9.384a4.758,4.758,0,0,1-3.639-1.66l-2.244-2.64a6.568,6.568,0,0,0-4.831-2.29v-5.19h3.307a6.3,6.3,0,0,1,4.35,1.72l4.843,4.57a0.847,0.847,0,0,1,.035,1.2,0.9,0.9,0,0,1-1.245.05l-3.8-3.4a0.908,0.908,0,0,0-1.269.05,0.863,0.863,0,0,0,.055,1.24l3.8,3.41a2.738,2.738,0,0,0,3.779-.16,2.591,2.591,0,0,0-.108-3.66l-4.844-4.57a8.13,8.13,0,0,0-5.6-2.2h-3.482a2.225,2.225,0,0,0-2.052-1.34H867.9a0.893,0.893,0,0,0-.9.88v6.42a0.9,0.9,0,0,0,1.8,0v-5.54h3.33a0.427,0.427,0,0,1,.43.42v7.04a0.427,0.427,0,0,1-.43.42h-0.933a0.875,0.875,0,1,0,0,1.75h0.933a2.224,2.224,0,0,0,2.065-1.36,4.774,4.774,0,0,1,3.612,1.66l2.244,2.64a6.58,6.58,0,0,0,5.02,2.3h9.384A2.711,2.711,0,1,0,894.452,1034.58Zm17.65-24.47a0.887,0.887,0,0,0-.9.88v5.88h-3.33a0.427,0.427,0,0,1-.43-0.42v-7.04a0.427,0.427,0,0,1,.43-0.42h0.867a0.875,0.875,0,1,0,0-1.75h-0.867a2.224,2.224,0,0,0-2.065,1.36,4.774,4.774,0,0,1-3.612-1.66l-2.244-2.64a6.582,6.582,0,0,0-5.021-2.3h-9.383a2.711,2.711,0,1,0,0,5.42h3.837a0.88,0.88,0,1,0,0-1.76h-3.837a0.95,0.95,0,1,1,0-1.9h9.383a4.758,4.758,0,0,1,3.64,1.66l2.244,2.64a6.568,6.568,0,0,0,4.831,2.29v5.19h-3.308a6.3,6.3,0,0,1-4.349-1.72l-4.843-4.57a0.848,0.848,0,0,1-.036-1.2,0.9,0.9,0,0,1,1.245-.05l3.8,3.4a0.908,0.908,0,0,0,1.269-.05,0.863,0.863,0,0,0-.055-1.24l-3.8-3.41a2.728,2.728,0,0,0-3.779.16,2.591,2.591,0,0,0,.108,3.66l4.843,4.57a8.133,8.133,0,0,0,5.6,2.2h3.483a2.225,2.225,0,0,0,2.052,1.34H912.1a0.893,0.893,0,0,0,.9-0.88v-6.76A0.887,0.887,0,0,0,912.1,1010.11Zm-16.1,21.74a0.916,0.916,0,0,0-1.187-.44,0.879,0.879,0,0,0-.465,1.16,0.9,0.9,0,0,0,.824.53,0.916,0.916,0,0,0,.358-0.08h0.019A0.877,0.877,0,0,0,896.005,1031.85Zm2.233-1.47a0.923,0.923,0,0,0-1.258-.19,0.869,0.869,0,0,0-.194,1.23,0.919,0.919,0,0,0,.726.36,0.942,0.942,0,0,0,.53-0.17l0.011-.01A0.857,0.857,0,0,0,898.238,1030.38Zm-4.745,2.46a0.9,0.9,0,0,0-1.061-.68,0.877,0.877,0,0,0,.174,1.74,0.5,0.5,0,0,0,.17-0.02H892.8A0.878,0.878,0,0,0,893.493,1032.84Zm6.622-4.37a0.908,0.908,0,0,0-1.269.06,0.041,0.041,0,0,1-.019.02,0.867,0.867,0,0,0,.093,1.24,0.927,0.927,0,0,0,1.261-.08A0.866,0.866,0,0,0,900.115,1028.47Zm-0.5.74-0.1-.09,0.108,0.09h-0.008Zm2.788-5.5a0.9,0.9,0,0,0-1.121.59,0.882,0.882,0,0,0,.6,1.1,1.181,1.181,0,0,0,.264.03,0.893,0.893,0,0,0,.858-0.62l0-.01A0.871,0.871,0,0,0,902.4,1023.71Zm1.151-4.53c0-.01,0-0.02-0.007-0.03a0.893,0.893,0,0,0-1.062-.68,0.878,0.878,0,0,0-.7,1.03,0.891,0.891,0,0,0,.881.71,0.866,0.866,0,0,0,.16-0.01A0.882,0.882,0,0,0,903.552,1019.18Zm-0.824,1.9a0.9,0.9,0,0,0-.974.8c0,0.01,0,.03,0,0.04a0.875,0.875,0,0,0,.844.92c0.017,0,.035.01,0.053,0.01A0.886,0.886,0,0,0,902.728,1021.08Zm-1.206,5.13a0.911,0.911,0,0,0-1.225.33l-0.012.02a0.865,0.865,0,0,0,.359,1.19,0.841,0.841,0,0,0,.43.11,0.893,0.893,0,0,0,.786-0.45l-0.781-.44,0.781,0.43A0.86,0.86,0,0,0,901.522,1026.21Zm-16.293-16.72a0.908,0.908,0,0,0-1.205-.39h-0.008a0.869,0.869,0,0,0-.4,1.18,0.911,0.911,0,0,0,.806.48,0.957,0.957,0,0,0,.4-0.09A0.873,0.873,0,0,0,885.229,1009.49Zm2.6-.73a0.906,0.906,0,0,0-1.085-.65s-0.017.01-.021,0.01a0.877,0.877,0,0,0-.648,1.07,0.9,0.9,0,0,0,.868.66,0.868,0.868,0,0,0,.224-0.03A0.881,0.881,0,0,0,887.828,1008.76Zm-4.975,2a0.914,0.914,0,0,0-1.262-.14l0.557,0.69-0.56-.68a0.86,0.86,0,0,0-.143,1.23,0.915,0.915,0,0,0,1.262.14l0.012-.01A0.861,0.861,0,0,0,882.853,1010.76Zm-4.789,6.24a0.9,0.9,0,0,0-1.1.62c0,0.01-.007.02-0.009,0.03a0.875,0.875,0,0,0,.661,1.06,0.77,0.77,0,0,0,.213.02,0.889,0.889,0,0,0,.871-0.66A0.878,0.878,0,0,0,878.064,1017Zm-0.573,2.58a0.889,0.889,0,0,0-.949.83c0,0.01,0,.02,0,0.03a0.883,0.883,0,0,0,.871.9h0.027A0.88,0.88,0,0,0,877.491,1019.58Zm1.7-4.98a0.914,0.914,0,0,0-1.213.37l-0.014.03a0.874,0.874,0,0,0,.409,1.18,0.933,0.933,0,0,0,.4.09,0.9,0.9,0,0,0,.8-0.49A0.872,0.872,0,0,0,879.194,1014.6Zm1.623-2.11a0.906,0.906,0,0,0-1.265.12,0.034,0.034,0,0,0-.019.02,0.861,0.861,0,0,0,.146,1.23,0.913,0.913,0,0,0,1.26-.14A0.865,0.865,0,0,0,880.817,1012.49Zm-2.311,10.44a0.906,0.906,0,0,0-1.042-.71,0.887,0.887,0,0,0-.726,1.02l0,0.01A0.9,0.9,0,0,0,878.506,1022.93Zm14.578-6.66a4.236,4.236,0,0,1-6.049,0,4.132,4.132,0,0,0-4.172,4.08,4.037,4.037,0,0,0,1.5,3.13c0.006,0,.012.01,0.018,0.01l5.119,3.96a0.916,0.916,0,0,0,1.117,0l5.337-4.15a0.372,0.372,0,0,0,.074-0.07,3.988,3.988,0,0,0,1.226-2.88A4.131,4.131,0,0,0,893.084,1016.27Zm1.71,5.69-4.736,3.68-4.551-3.52a2.29,2.29,0,0,1-.847-1.77,2.385,2.385,0,0,1,4.57-.89,0.908,0.908,0,0,0,1.66,0,2.385,2.385,0,0,1,4.569.89A2.3,2.3,0,0,1,894.794,1021.96Zm-26.9,11.05a0.875,0.875,0,1,1-.895.87A0.883,0.883,0,0,1,867.9,1033.01Zm44.2-25.77a0.875,0.875,0,1,1-.895.88A0.885,0.885,0,0,1,912.1,1007.24Z" transform="translate(-867 -1002)" />
</svg>
