<svg xmlns="http://www.w3.org/2000/svg" width="45" height="45" viewBox="0 0 45 45">
  <defs>
    <style>
      .cls-1 {
        fill: #000;
        fill-rule: evenodd;
      }
    </style>
  </defs>
  <path class="cls-1" d="M903.6,1380.01a0.691,0.691,0,0,0,.793-0.57c0.34-2.04.721-3.85,0.725-3.87a0.687,0.687,0,0,0-.2-0.64,0.679,0.679,0,0,0-.65-0.17,16.155,16.155,0,0,0-3.882,1.75,27.1,27.1,0,0,0-.7-4.93,0.688,0.688,0,0,0-.378-0.45,0.679,0.679,0,0,0-.59.01,15.121,15.121,0,0,0-4.923,3.85,38.985,38.985,0,0,0-3.738-6.49,0.678,0.678,0,0,0-1.112,0,39.912,39.912,0,0,0-3.14,5.24c-0.212.42-.41,0.84-0.6,1.25a15.256,15.256,0,0,0-4.926-3.85,0.681,0.681,0,0,0-.591-0.01,0.69,0.69,0,0,0-.377.45c-0.006.02-.129,0.51-0.273,1.29a0.688,0.688,0,0,0,1.354.25q0.033-.18.063-0.33a14.4,14.4,0,0,1,4.147,3.63,18.734,18.734,0,0,0-1.236,4.74,13.359,13.359,0,0,0-3.4-3.73c0-.25.007-0.5,0.018-0.76a0.688,0.688,0,0,0-1.364-.16,16.184,16.184,0,0,0-3.891-1.75,0.679,0.679,0,0,0-.65.17,0.687,0.687,0,0,0-.2.64c0.009,0.04.872,4.14,1.164,7.03a9.313,9.313,0,0,0,3.87,6.74c-0.841.08-1.572,0.16-2.168,0.26-1.289.2-2.355,0.43-2.355,1.27s1.037,1.06,2.29,1.26c1.105,0.17,2.7.33,4.608,0.44h0.041a0.688,0.688,0,0,0,.687-0.65,0.7,0.7,0,0,0-.648-0.73c-1.706-.1-2.918-0.21-3.775-0.32,0.911-.12,2.174-0.23,3.878-0.33a11.244,11.244,0,0,0,3.137.42,17.424,17.424,0,0,0,4.443-.63h0.9a17.424,17.424,0,0,0,4.443.63,11.263,11.263,0,0,0,3.139-.42c1.7,0.1,2.965.21,3.877,0.33a105.5,105.5,0,0,1-11.906.54c-1.515,0-3.022-.02-4.479-0.06a0.69,0.69,0,0,0-.039,1.38c1.471,0.04,2.991.06,4.518,0.06,3.87,0,7.512-.13,10.255-0.37a29.105,29.105,0,0,0,3.169-.4c0.63-.13,1.686-0.34,1.686-1.15,0-.84-1.067-1.07-2.356-1.27-0.6-.1-1.336-0.18-2.182-0.26a9.379,9.379,0,0,0,3.841-6.39,0.689,0.689,0,1,0-1.364-.19,7.7,7.7,0,0,1-5.3,6.42,11.259,11.259,0,0,1-5.067.22,7.143,7.143,0,0,0,3.228-4.7c0.255-.48.5-0.98,0.72-1.51a11.577,11.577,0,0,1,3.993-4.85,15.7,15.7,0,0,1,3.408-1.87c-0.14.72-.324,1.7-0.5,2.75A0.689,0.689,0,0,0,903.6,1380.01Zm-21.854,9.17a7.672,7.672,0,0,1-5.334-6.72c-0.2-2.02-.663-4.53-0.947-5.99a15.879,15.879,0,0,1,3.407,1.87,11.577,11.577,0,0,1,3.993,4.85c0.223,0.53.466,1.03,0.721,1.51a7.145,7.145,0,0,0,3.227,4.7A11.26,11.26,0,0,1,881.748,1389.18Zm12.47-5.51c-0.841,5.06-4.493,5.13-4.7,5.13h-0.031a4.4,4.4,0,0,1-1.981-.59,6.015,6.015,0,0,1-2.723-4.54c-0.784-4.72,3.211-11.28,4.718-13.55C891.007,1372.39,895,1378.95,894.218,1383.67Zm1.408-2.51a19.07,19.07,0,0,0-1.23-4.74,14.407,14.407,0,0,1,4.144-3.63,25.138,25.138,0,0,1,.494,4.64A13.371,13.371,0,0,0,895.626,1381.16ZM889.5,1358a0.69,0.69,0,0,0-.689.69v2.57a0.689,0.689,0,1,0,1.378,0v-2.57A0.691,0.691,0,0,0,889.5,1358Zm0,41.05a0.69,0.69,0,0,0-.689.69v2.57a0.689,0.689,0,1,0,1.378,0v-2.57A0.691,0.691,0,0,0,889.5,1399.05Zm-9.024-35.56-1.285-2.22a0.691,0.691,0,0,0-.941-0.26,0.7,0.7,0,0,0-.252.95l1.286,2.22a0.7,0.7,0,0,0,.6.35,0.625,0.625,0,0,0,.343-0.1A0.686,0.686,0,0,0,880.476,1363.49ZM901,1399.04l-1.286-2.22a0.689,0.689,0,0,0-1.193.69l1.286,2.22a0.7,0.7,0,0,0,.6.35,0.71,0.71,0,0,0,.344-0.09A0.7,0.7,0,0,0,901,1399.04Zm-27.82-28.76-2.227-1.28a0.688,0.688,0,1,0-.689,1.19l2.227,1.29a0.713,0.713,0,0,0,.344.09,0.676,0.676,0,0,0,.6-0.35A0.688,0.688,0,0,0,873.182,1370.28Zm35.551,20.53-2.226-1.29a0.692,0.692,0,0,0-.689,1.2l2.227,1.28a0.709,0.709,0,0,0,.343.09A0.685,0.685,0,0,0,908.733,1390.81Zm-38.473-11h-2.571a0.69,0.69,0,0,0,0,1.38h2.571A0.69,0.69,0,0,0,870.26,1379.81Zm41.051,0H908.74a0.69,0.69,0,0,0,0,1.38h2.571A0.69,0.69,0,0,0,911.311,1379.81Zm-37.877,9.97a0.691,0.691,0,0,0-.941-0.26l-2.226,1.29a0.685,0.685,0,0,0,.345,1.28,0.709,0.709,0,0,0,.343-0.09l2.227-1.28A0.69,0.69,0,0,0,873.434,1389.78Zm35.551-20.53a0.687,0.687,0,0,0-.94-0.25l-2.227,1.28a0.687,0.687,0,0,0-.252.94,0.675,0.675,0,0,0,.6.35,0.713,0.713,0,0,0,.344-0.09l2.226-1.29A0.686,0.686,0,0,0,908.985,1369.25Zm-28.761,27.32a0.688,0.688,0,0,0-.941.25L878,1399.04a0.7,0.7,0,0,0,.252.95,0.71,0.71,0,0,0,.344.09,0.7,0.7,0,0,0,.6-0.35l1.285-2.22A0.686,0.686,0,0,0,880.224,1396.57Zm20.526-35.56a0.691,0.691,0,0,0-.941.26l-1.286,2.22a0.688,0.688,0,0,0,.252.94,0.629,0.629,0,0,0,.344.1,0.7,0.7,0,0,0,.6-0.35l1.286-2.22A0.7,0.7,0,0,0,900.75,1361.01Z" transform="translate(-867 -1358)"/>
</svg>
