<svg xmlns="http://www.w3.org/2000/svg" width="38" height="43" viewBox="0 0 38 43">
  <defs>
    <style>
      .cls-1 {
        fill: #fff;
        fill-rule: evenodd;
      }
    </style>
  </defs>
  <path class="cls-1" d="M1183.64,1154.36h-5.03v-2.47a1.886,1.886,0,0,0-1.88-1.89h-26.8a1.942,1.942,0,0,0-1.93,1.95v13.91a1.942,1.942,0,0,0,1.93,1.95h0.73l0.9,3.03a0.619,0.619,0,0,0,.54.45h0.06a0.612,0.612,0,0,0,.55-0.33l1.64-3.15h1.28v4.98a2.363,2.363,0,0,0,2.13,2.37v4.98h-1.01a2,2,0,0,0-1.99,2V1191a2,2,0,0,0,1.99,2h13.12a2,2,0,0,0,1.99-2v-8.86a2,2,0,0,0-1.99-2h-1.01v-4.97h7.15l1.31,4.39a0.633,0.633,0,0,0,.6.44,0.624,0.624,0,0,0,.6-0.44l1.32-4.39h3.8a2.375,2.375,0,0,0,2.36-2.38v-16.06A2.366,2.366,0,0,0,1183.64,1154.36Zm-13.77,27.04a0.738,0.738,0,0,1,.74.74V1191a0.738,0.738,0,0,1-.74.74h-13.12a0.738,0.738,0,0,1-.74-0.74v-8.86a0.738,0.738,0,0,1,.74-0.74h13.12Zm-10.86-1.26v-4.97h1.09v4.97h-1.09Zm2.34,0v-4.97h3.92v4.97h-3.92Zm23.4-7.35h0a1.116,1.116,0,0,1-1.11,1.12h-4.27a0.63,0.63,0,0,0-.6.45l-0.85,2.84-0.85-2.84a0.621,0.621,0,0,0-.6-0.45h-7.64a5.69,5.69,0,0,0-.2-1.03,0.612,0.612,0,0,0-.73-0.42h-0.01a0.623,0.623,0,0,0-.46.78,4.493,4.493,0,0,1,.17,1.22v5.68h-1.08v-5.68a3.222,3.222,0,0,0-2.59-3.17v-1.11a4.3,4.3,0,0,1,1.85.74,0.6,0.6,0,0,0,.87-0.18l0.02-.02a0.624,0.624,0,0,0-.16-0.82,5.492,5.492,0,0,0-2.58-.99v-0.39a0.649,0.649,0,0,0-.6-0.66,0.632,0.632,0,0,0-.65.63v4.35a0.657,0.657,0,0,0,.61.66,0.63,0.63,0,0,0,.64-0.63v-0.28a1.98,1.98,0,0,1,1.26,1.32h-7.21a1.108,1.108,0,0,1-1.1-1.12v-8.07a0.65,0.65,0,0,0-.61-0.66,0.63,0.63,0,0,0-.64.63v1.86h-1.66a0.626,0.626,0,0,0-.56.34l-1.09,2.11-0.6-2a0.621,0.621,0,0,0-.6-0.45h-1.19a0.689,0.689,0,0,1-.68-0.69v-13.91a0.689,0.689,0,0,1,.68-0.69h26.8a0.627,0.627,0,0,1,.63.63v2.47h-19.38a2.358,2.358,0,0,0-2.35,2.37V1161a0.639,0.639,0,0,0,.6.65,0.626,0.626,0,0,0,.65-0.63v-4.29a1.105,1.105,0,0,1,1.1-1.11h25.66a1.114,1.114,0,0,1,1.11,1.11v16.06h0Zm-7.93-14.09h-16.18a0.63,0.63,0,0,0,0,1.26h16.18A0.63,0.63,0,0,0,1176.82,1158.7Zm3.67,0h-1.5a0.63,0.63,0,0,0,0,1.26h1.5A0.63,0.63,0,1,0,1180.49,1158.7Zm0,3.28h-16.18a0.63,0.63,0,0,0,0,1.26h16.18A0.63,0.63,0,1,0,1180.49,1161.98Zm-18.35,0h-1.5a0.63,0.63,0,0,0,0,1.26h1.5A0.63,0.63,0,0,0,1162.14,1161.98Zm9.39,3.45h-10.81a0.625,0.625,0,0,0-.62.63,0.632,0.632,0,0,0,.62.63h10.81a0.632,0.632,0,0,0,.62-0.63A0.625,0.625,0,0,0,1171.53,1165.43Zm8.92,0h-5.84a0.625,0.625,0,0,0-.62.63,0.632,0.632,0,0,0,.62.63h5.84a0.634,0.634,0,0,0,.63-0.63A0.627,0.627,0,0,0,1180.45,1165.43Zm-15.29,21.67a2.673,2.673,0,0,0,.78-1.88,2.63,2.63,0,1,0-4.48,1.88l-0.38,1.97a1.259,1.259,0,0,0,.27,1.07,1.274,1.274,0,0,0,.98.46h1.96a1.274,1.274,0,0,0,.98-0.46,1.293,1.293,0,0,0,.27-1.07Zm-1.3-.12,0.45,2.33v0.02a0.031,0.031,0,0,1-.02.01h-1.96a0.02,0.02,0,0,1-.02-0.01c-0.01,0,0-.01,0-0.02l0.45-2.33a0.646,0.646,0,0,0-.25-0.63,1.384,1.384,0,0,1,.64-2.5,0.86,0.86,0,0,1,.16-0.01,1.362,1.362,0,0,1,1.37,1.38,1.388,1.388,0,0,1-.57,1.13A0.619,0.619,0,0,0,1163.86,1186.98Z" transform="translate(-1148 -1150)"/>
</svg>
